<svg data-v-423bf9ae="" xmlns="http://www.w3.org/2000/svg" viewBox="0 0 241.68655112856067 60" class="font"><!----><!----><!----><g data-v-423bf9ae="" id="c184aa5f-af7a-4298-93f1-593079621990" fill="#372581" transform="matrix(5.110732637968813,0,0,5.110732637968813,-1.7376478509396804,-6.388414843786698)"><path d="M6.61 1.74L6.61 1.74L6.61 1.74Q6.61 2.02 6.43 2.25L6.43 2.25L6.43 2.25Q6.26 2.48 5.98 2.53L5.98 2.53L5.98 2.53Q5.87 2.56 5.67 2.47L5.67 2.47L5.67 2.47Q5.47 2.38 5.36 2.39L5.36 2.39L5.36 2.39Q4.75 2.45 3.85 2.83L3.85 2.83L3.85 2.83Q2.72 3.30 2.37 3.40L2.37 3.40L2.37 3.40Q2.31 4.28 2.31 5.19L2.31 5.19L2.31 5.19Q2.31 6.10 2.37 7.01L2.37 7.01L2.37 7.01Q2.48 7.04 2.60 7.04L2.60 7.04L2.60 7.04Q2.88 7.04 3.61 6.82L3.61 6.82L3.61 6.82Q4.30 6.62 4.66 6.66L4.66 6.66L4.66 6.66Q4.97 6.69 4.94 6.90L4.94 6.90L4.94 6.90Q4.86 7.45 4.24 7.74L4.24 7.74L4.24 7.74Q3.67 7.92 3.09 8.12L3.09 8.12L3.09 8.12Q2.87 8.15 2.37 8.26L2.37 8.26L2.37 8.26Q2.34 8.54 2.34 8.89L2.34 8.89L2.34 8.89Q2.34 9.23 2.37 9.91L2.37 9.91L2.37 9.91Q2.41 10.60 2.41 10.93L2.41 10.93L2.41 10.93Q2.41 12.14 2.03 12.84L2.03 12.84L2.03 12.84Q1.95 12.99 1.78 12.99L1.78 12.99L1.78 12.99Q1.61 12.99 1.43 12.84L1.43 12.84L1.43 12.84Q1.25 12.68 1.19 12.50L1.19 12.50L1.19 12.50Q1.05 12.07 1.05 11.49L1.05 11.49L1.05 11.49Q1.05 11.30 1.15 10.14L1.15 10.14L1.15 10.14Q1.22 9.30 1.12 8.78L1.12 8.78L1.12 8.78Q1.09 8.60 0.84 8.48L0.84 8.48L0.84 8.48Q0.52 8.34 0.43 8.26L0.43 8.26L0.43 8.26Q0.39 8.16 0.46 7.70L0.46 7.70L0.46 7.70Q0.63 7.73 0.75 7.59L0.75 7.59L0.75 7.59Q0.87 7.45 0.98 7.45L0.98 7.45L0.98 7.45Q1.04 7.45 1.09 7.46L1.09 7.46L1.09 7.46Q1.23 6.78 1.23 5.92L1.23 5.92L1.23 5.92Q1.23 5.63 1.12 3.75L1.12 3.75L1.12 3.75Q0.85 3.68 0.59 3.42L0.59 3.42L0.59 3.42Q0.34 3.16 0.34 2.91L0.34 2.91L0.34 2.91Q0.34 2.56 0.84 2.49L0.84 2.49L0.84 2.49Q1.53 2.39 3.37 1.79L3.37 1.79L3.37 1.79Q5.00 1.26 5.98 1.25L5.98 1.25L5.98 1.25Q6.23 1.25 6.42 1.38L6.42 1.38L6.42 1.38Q6.61 1.51 6.61 1.74ZM10.78 9.95L10.78 9.95L10.78 9.95Q10.86 10.18 10.86 10.35L10.86 10.35L10.86 10.35Q10.86 10.63 10.63 10.84L10.63 10.84L10.63 10.84Q10.39 11.05 10.30 11.03L10.30 11.03L10.30 11.03Q9.62 10.91 9.44 9.93L9.44 9.93L9.44 9.93Q9.24 8.86 8.97 8.15L8.97 8.15L8.97 8.15Q8.50 8.19 8.02 8.23L8.02 8.23L8.02 8.23Q7.48 8.30 7.17 8.57L7.17 8.57L7.17 8.57Q7.01 9.00 6.76 10.11L6.76 10.11L6.76 10.11Q6.52 11.13 6.30 11.66L6.30 11.66L6.30 11.66Q6.19 11.91 5.82 11.80L5.82 11.80L5.82 11.80Q5.36 11.65 5.33 11.38L5.33 11.38L5.33 11.38Q5.29 10.85 5.64 9.95L5.64 9.95L5.64 9.95Q6.06 8.93 6.10 8.50L6.10 8.50L6.10 8.50Q6.12 8.37 5.92 8.22L5.92 8.22L5.92 8.22Q5.73 8.06 5.73 7.98L5.73 7.98L5.73 7.98Q5.73 7.91 5.79 7.83L5.79 7.83L5.79 7.83Q5.85 7.76 6.08 7.71L6.08 7.71L6.08 7.71Q6.31 7.66 6.34 7.56L6.34 7.56L6.34 7.56Q6.59 6.86 7.14 4.96L7.14 4.96L7.14 4.96Q7.60 3.30 7.97 2.42L7.97 2.42L7.97 2.42Q8.05 2.23 8.32 2.23L8.32 2.23L8.32 2.23Q8.51 2.23 8.67 2.35L8.67 2.35L8.67 2.35Q9.06 2.69 9.17 3.36L9.17 3.36L9.17 3.36Q9.25 3.93 9.32 4.51L9.32 4.51L9.32 4.51Q10.02 7.81 10.78 9.95ZM8.74 7.28L8.74 7.28L8.74 7.28Q8.69 6.76 8.55 6.12L8.55 6.12L8.55 6.12Q8.41 5.56 8.29 5.00L8.29 5.00L8.29 5.00Q7.87 6.16 7.56 7.32L7.56 7.32L7.56 7.32Q7.78 7.28 8.74 7.28ZM17.22 2.14L17.22 2.14L17.22 2.14Q17.02 4.02 16.84 5.91L16.84 5.91L16.84 5.91Q16.60 8.15 16.60 9.65L16.60 9.65L16.60 9.65Q16.60 10.14 16.63 10.61L16.63 10.61L16.63 10.61Q16.65 10.84 16.47 11.00L16.47 11.00L16.47 11.00Q16.30 11.17 16.07 11.17L16.07 11.17L16.07 11.17Q15.64 11.17 15.34 10.58L15.34 10.58L15.34 10.58Q14.45 8.83 13.12 5.10L13.12 5.10L13.12 5.10Q13.09 5.01 13.05 5.01L13.05 5.01L13.05 5.01Q12.95 5.01 12.92 5.21L12.92 5.21L12.92 5.21Q12.68 7.21 12.68 9.42L12.68 9.42L12.68 9.42Q12.68 10.49 12.74 11.59L12.74 11.59L12.74 11.59Q12.75 12.00 12.50 12.15L12.50 12.15L12.50 12.15Q12.40 12.25 12.29 12.25L12.29 12.25L12.29 12.25Q12.19 12.25 12.04 12.17L12.04 12.17L12.04 12.17Q11.83 12.07 11.77 12.04L11.77 12.04L11.77 12.04Q11.59 11.98 11.55 11.70L11.55 11.70L11.55 11.70Q11.54 11.48 11.52 11.24L11.52 11.24L11.52 11.24Q11.48 10.46 11.48 9.60L11.48 9.60L11.48 9.60Q11.48 8.12 11.65 5.89L11.65 5.89L11.65 5.89Q11.91 2.51 11.94 2.14L11.94 2.14L11.94 2.14Q11.96 1.83 12.46 1.83L12.46 1.83L12.46 1.83Q12.70 1.81 13.16 2.18L13.16 2.18L13.16 2.18Q13.61 3.04 14.27 4.96L14.27 4.96L14.27 4.96Q14.90 6.79 15.41 7.74L15.41 7.74L15.41 7.74Q15.62 5.88 16.07 2.11L16.07 2.11L16.07 2.11Q16.11 1.83 16.48 1.83L16.48 1.83L16.48 1.83Q16.60 1.83 16.77 1.88L16.77 1.88L16.77 1.88Q17.00 1.93 17.04 1.95L17.04 1.95L17.04 1.95Q17.18 2.00 17.22 2.14ZM25.27 2.18L25.27 2.18L25.27 2.18Q25.27 2.56 24.77 2.66L24.77 2.66L24.77 2.66Q24.11 2.79 23.95 2.95L23.95 2.95L23.95 2.95Q22.39 4.61 22.39 7.22L22.39 7.22L22.39 7.22Q22.39 8.46 22.78 9.55L22.78 9.55L22.78 9.55Q23.10 10.44 23.24 10.72L23.24 10.72L23.24 10.72Q23.59 11.41 24.09 11.70L24.09 11.70L24.09 11.70Q24.30 11.80 24.51 11.89L24.51 11.89L24.51 11.89Q24.74 12.01 24.74 12.24L24.74 12.24L24.74 12.24Q24.74 12.46 24.59 12.64L24.59 12.64L24.59 12.64Q24.44 12.82 24.28 12.78L24.28 12.78L24.28 12.78Q24.09 12.75 23.72 12.60L23.72 12.60L23.72 12.60Q23.04 12.21 22.26 10.93L22.26 10.93L22.26 10.93Q22.06 10.61 21.86 10.27L21.86 10.27L21.86 10.27Q21.66 9.93 21.56 9.62L21.56 9.62L21.56 9.62Q21.49 9.39 21.32 7.81L21.32 7.81L21.32 7.81Q21.27 7.32 21.27 6.86L21.27 6.86L21.27 6.86Q21.27 4.38 22.71 2.65L22.71 2.65L22.71 2.65Q23.55 1.64 24.46 1.64L24.46 1.64L24.46 1.64Q24.85 1.64 25.17 1.88L25.17 1.88L25.17 1.88Q25.27 1.95 25.27 2.18ZM29.85 2.80L29.85 2.80L29.85 2.80Q29.82 4.05 29.44 6.75L29.44 6.75L29.44 6.75Q29.09 9.31 29.09 10.68L29.09 10.68L29.09 10.68Q29.09 11.12 29.12 11.51L29.12 11.51L29.12 11.51Q29.12 11.61 29.04 11.70L29.04 11.70L29.04 11.70Q28.95 11.79 28.84 11.79L28.84 11.79L28.84 11.79Q28.45 11.79 28.32 11.72L28.32 11.72L28.32 11.72Q27.79 11.41 27.79 10.56L27.79 10.56L27.79 10.56Q27.79 10.39 27.81 10.03L27.81 10.03L27.81 10.03Q27.83 9.67 27.83 9.51L27.83 9.51L27.83 9.51Q27.83 9.23 27.90 8.65L27.90 8.65L27.90 8.65Q27.97 8.08 27.97 7.77L27.97 7.77L27.97 7.77Q27.78 7.78 27.43 7.71L27.43 7.71L27.43 7.71Q27.09 7.64 26.94 7.64L26.94 7.64L26.94 7.64Q26.75 7.64 26.59 7.70L26.59 7.70L26.59 7.70Q26.25 8.81 26.19 10.96L26.19 10.96L26.19 10.96Q25.72 11.16 25.27 10.92L25.27 10.92L25.27 10.92Q24.95 10.75 24.95 10.25L24.95 10.25L24.95 10.25Q24.95 10.14 24.97 9.95L24.97 9.95L24.97 9.95Q24.99 9.76 24.99 9.72L24.99 9.72L24.99 9.72Q25.03 8.96 25.31 6.72L25.31 6.72L25.31 6.72Q25.55 4.84 25.54 3.74L25.54 3.74L25.54 3.74Q25.54 3.58 25.75 3.54L25.75 3.54L25.75 3.54Q25.97 3.50 26.00 3.46L26.00 3.46L26.00 3.46Q26.08 3.56 26.40 3.63L26.40 3.63L26.40 3.63Q26.67 3.68 26.73 3.88L26.73 3.88L26.73 3.88Q26.84 4.23 26.84 4.66L26.84 4.66L26.84 4.66Q26.84 4.97 26.75 5.63L26.75 5.63L26.75 5.63Q26.66 6.30 26.66 6.65L26.66 6.65L26.66 6.65Q26.82 6.78 27.08 6.80L27.08 6.80L27.08 6.80Q27.24 6.83 27.55 6.82L27.55 6.82L27.55 6.82Q27.96 6.79 28.04 6.79L28.04 6.79L28.04 6.79Q28.39 5.32 28.66 2.98L28.66 2.98L28.66 2.98Q28.71 2.49 29.01 2.49L29.01 2.49L29.01 2.49Q29.75 2.42 29.85 2.80ZM35.56 3.63L35.56 3.63L35.56 3.63Q35.04 3.84 34.03 4.12L34.03 4.12L34.03 4.12Q33.03 4.40 32.51 4.61L32.51 4.61L32.51 4.61Q32.38 4.97 32.33 6.23L32.33 6.23L32.33 6.23Q32.55 6.31 32.84 6.31L32.84 6.31L32.84 6.31Q33.05 6.31 33.50 6.24L33.50 6.24L33.50 6.24Q33.95 6.17 34.16 6.17L34.16 6.17L34.16 6.17Q34.55 6.17 34.83 6.34L34.83 6.34L34.83 6.34Q35.03 6.62 35.03 6.71L35.03 6.71L35.03 6.71Q35.03 6.80 34.93 6.86L34.93 6.86L34.93 6.86Q34.90 6.87 34.73 7.06L34.73 7.06L34.73 7.06Q34.62 7.18 34.45 7.17L34.45 7.17L34.45 7.17Q34.16 7.24 33.38 7.25L33.38 7.25L33.38 7.25Q32.72 7.27 32.33 7.42L32.33 7.42L32.33 7.42Q32.06 8.46 32.06 9.06L32.06 9.06L32.06 9.06Q32.06 9.46 32.17 9.70L32.17 9.70L32.17 9.70Q32.83 10.16 34.45 10.09L34.45 10.09L34.45 10.09Q34.57 10.09 34.69 9.99L34.69 9.99L34.69 9.99Q34.82 9.88 34.90 9.88L34.90 9.88L34.90 9.88Q35.29 9.80 35.42 10.47L35.42 10.47L35.42 10.47Q35.46 10.70 35.34 10.88L35.34 10.88L35.34 10.88Q35.22 11.07 35 11.09L35 11.09L35 11.09Q33.31 11.14 32.06 10.82L32.06 10.82L32.06 10.82Q31.67 10.72 31.35 10.39L31.35 10.39L31.35 10.39Q31.02 10.05 30.98 9.63L30.98 9.63L30.98 9.63Q30.86 8.41 30.98 7.45L30.98 7.45L30.98 7.45Q30.59 7.18 30.63 6.93L30.63 6.93L30.63 6.93Q30.65 6.80 30.85 6.70L30.85 6.70L30.85 6.70Q31.05 6.59 31.08 6.48L31.08 6.48L31.08 6.48Q31.11 6.37 31.19 5.15L31.19 5.15L31.19 5.15Q30.41 5.00 30.42 4.56L30.42 4.56L30.42 4.56Q30.44 4.16 30.91 3.92L30.91 3.92L30.91 3.92Q31.36 3.74 31.81 3.56L31.81 3.56L31.81 3.56Q32.34 3.29 33.12 3.08L33.12 3.08L33.12 3.08Q33.80 2.90 34.48 2.73L34.48 2.73L34.48 2.73Q34.55 2.72 34.65 2.72L34.65 2.72L34.65 2.72Q35.03 2.72 35.53 3.01L35.53 3.01L35.53 3.01Q35.55 3.07 35.60 3.22L35.60 3.22L35.60 3.22Q35.66 3.37 35.66 3.44L35.66 3.44L35.66 3.44Q35.66 3.56 35.56 3.63ZM41.80 2.14L41.80 2.14L41.80 2.14Q41.61 4.02 41.43 5.91L41.43 5.91L41.43 5.91Q41.19 8.15 41.19 9.65L41.19 9.65L41.19 9.65Q41.19 10.14 41.22 10.61L41.22 10.61L41.22 10.61Q41.23 10.84 41.06 11.00L41.06 11.00L41.06 11.00Q40.88 11.17 40.66 11.17L40.66 11.17L40.66 11.17Q40.22 11.17 39.93 10.58L39.93 10.58L39.93 10.58Q39.03 8.83 37.70 5.10L37.70 5.10L37.70 5.10Q37.67 5.01 37.63 5.01L37.63 5.01L37.63 5.01Q37.53 5.01 37.51 5.21L37.51 5.21L37.51 5.21Q37.27 7.21 37.27 9.42L37.27 9.42L37.27 9.42Q37.27 10.49 37.32 11.59L37.32 11.59L37.32 11.59Q37.34 12.00 37.09 12.15L37.09 12.15L37.09 12.15Q36.99 12.25 36.88 12.25L36.88 12.25L36.88 12.25Q36.78 12.25 36.62 12.17L36.62 12.17L36.62 12.17Q36.41 12.07 36.36 12.04L36.36 12.04L36.36 12.04Q36.18 11.98 36.13 11.70L36.13 11.70L36.13 11.70Q36.12 11.48 36.11 11.24L36.11 11.24L36.11 11.24Q36.06 10.46 36.06 9.60L36.06 9.60L36.06 9.60Q36.06 8.12 36.23 5.89L36.23 5.89L36.23 5.89Q36.50 2.51 36.53 2.14L36.53 2.14L36.53 2.14Q36.54 1.83 37.04 1.83L37.04 1.83L37.04 1.83Q37.28 1.81 37.74 2.18L37.74 2.18L37.74 2.18Q38.19 3.04 38.85 4.96L38.85 4.96L38.85 4.96Q39.48 6.79 40.00 7.74L40.00 7.74L40.00 7.74Q40.21 5.88 40.66 2.11L40.66 2.11L40.66 2.11Q40.70 1.83 41.06 1.83L41.06 1.83L41.06 1.83Q41.19 1.83 41.36 1.88L41.36 1.88L41.36 1.88Q41.58 1.93 41.62 1.95L41.62 1.95L41.62 1.95Q41.76 2.00 41.80 2.14ZM47.57 7.13L47.57 7.13L47.57 7.13Q47.19 8.06 47.08 9.44L47.08 9.44L47.08 9.44Q47.01 10.63 46.96 11.82L46.96 11.82L46.96 11.82Q46.93 12.17 46.49 12.17L46.49 12.17L46.49 12.17Q46.37 12.17 46.26 12.12L46.26 12.12L46.26 12.12Q45.65 11.87 45.65 11.19L45.65 11.19L45.65 11.19Q45.65 10.99 45.71 10.59L45.71 10.59L45.71 10.59Q45.77 10.19 45.77 10.01L45.77 10.01L45.77 10.01Q45.82 9.60 45.91 8.79L45.91 8.79L45.91 8.79Q44.94 9.70 43.72 10.15L43.72 10.15L43.72 10.15Q43.55 10.21 43.39 10.21L43.39 10.21L43.39 10.21Q42.74 10.21 42.20 9.48L42.20 9.48L42.20 9.48Q41.89 9.07 41.89 8.47L41.89 8.47L41.89 8.47Q41.89 7.94 42.13 7.22L42.13 7.22L42.13 7.22Q42.87 4.96 44.49 2.79L44.49 2.79L44.49 2.79Q45.30 1.71 45.93 1.71L45.93 1.71L45.93 1.71Q46.49 1.71 46.56 2.13L46.56 2.13L46.56 2.13Q46.62 2.48 46.33 2.63L46.33 2.63L46.33 2.63Q45.84 2.90 45.81 2.93L45.81 2.93L45.81 2.93Q44.63 4.23 43.65 6.29L43.65 6.29L43.65 6.29Q43.05 7.56 43.05 8.57L43.05 8.57L43.05 8.57Q43.05 8.75 43.06 8.93L43.06 8.93L43.06 8.93Q43.09 8.95 43.15 9.06L43.15 9.06L43.15 9.06Q43.20 9.18 43.30 9.14L43.30 9.14L43.30 9.14Q44.23 8.78 46.09 7.22L46.09 7.22L46.09 7.22Q46.23 7.11 46.41 6.58L46.41 6.58L46.41 6.58Q46.55 6.19 46.91 6.19L46.91 6.19L46.91 6.19Q46.80 6.19 47.14 6.16L47.14 6.16L47.14 6.16Q47.31 6.13 47.36 6.22L47.36 6.22L47.36 6.22Q47.63 6.61 47.63 6.86L47.63 6.86L47.63 6.86Q47.63 6.99 47.57 7.13Z"></path></g><!----><!----></svg>